<svg xmlns="http://www.w3.org/2000/svg" viewBox="0 0 2261.17 740.47"><defs><style>.cls-1{fill:#1c57eb;}</style></defs><g id="Capa_2" data-name="Capa 2"><g id="Capa_1-2" data-name="Capa 1"><path class="cls-1" d="M1067.41,678.3H954.25V49.59h113.16Z"/><path class="cls-1" d="M1239.88,232.82l53,348.48h10.78l70.07-348.48H1530l70,348.48h10.78l53-348.48H1777L1689,678.3H1527.3l-70.07-348.5h-10.78l-70,348.5H1214.73l-88-445.48Z"/><path class="cls-1" d="M2036.62,220.24c124,0,201.19,69.16,224.55,170.65l-111.38,28.74c-8.08-53.89-43.11-98.81-111.38-98.81s-120.35,53.9-120.35,134.73,47.61,134.73,120.35,134.73c68.27,0,99.71-39.52,111.38-97.91l111.38,27.86c-21.56,101.49-99.7,170.65-224.55,170.65-129.33,0-231.73-97-231.73-235.33S1907.29,220.24,2036.62,220.24Z"/><path class="cls-1" d="M390.88,0C175,0,0,165.66,0,370.15S175,740.47,390.88,740.47,781.61,574.66,781.61,370.15,606.59,0,390.88,0Zm51.28,671.69c-166.42,0-301.37-135-301.37-301.54,0-166.42,135-301.52,301.37-301.52,166.58,0,301.53,135.1,301.53,301.52C743.69,536.73,608.74,671.69,442.16,671.69Z"/><path class="cls-1" d="M515.55,178.55c-105.94,0-191.76,85.83-191.76,191.6,0,105.94,85.82,191.61,191.76,191.61a191.55,191.55,0,0,0,191.6-191.61C707.15,264.38,621.33,178.55,515.55,178.55Z"/></g></g></svg>